<svg xmlns="http://www.w3.org/2000/svg" viewBox="0 0 130.85 130.43"><defs><style>.cls-1{fill:#30efaa;}</style></defs><title>Asset 6</title><g id="Layer_2" data-name="Layer 2"><g id="Camada_1" data-name="Camada 1"><path class="cls-1" d="M85,29.61,72.68,34.13,96.12,62.68a41.11,41.11,0,0,1,3-5.76c3.65-5.06,10.53-4.61,13,1.1,3.49,8,2.75,16.27-.94,23.87C110.1,84.2,106,85.06,102,87.28c-1.22,9.06-5.49,18.72-12.35,27.25-20.4,25.35-61,19.39-73.73-10.76-.62-1.45-2.75-2.36-4.3-3.3-1-.62-2.46-.61-3.42-1.3C3,95.38-1.49,81.31.47,75.11s7.65-7.3,13.88-2.65C18.18,60.11,22,47.65,26.07,34.63l-6.81-4.25,7.66-.49-5-11c7.66-.4,9.4,4.41,11.49,8.61C52.69,19.48,70.26,20.1,85,29.61Zm-5.39,20c-4.59-4-9.22-8.2-14-12.21-1.31-1.09-3-2.3-4.59-2.37-6-.28-12-.11-18.25-.11l12.72,5.73-.28,1.2h-23A92.8,92.8,0,0,0,19,76.89C15.29,101.21,27,119.1,51,124.43c6.18,1.37,13.67,1.84,19.33-.38,14.2-5.58,20.64-18.3,25.29-32.11,4.11-12.21.61-22.39-7.19-31.8-3.07-3.7-2.9-3.71-7-.94-.72.49-2.15-.05-3.48-.14l1.68,4-7.44-.64c.49-1.84,1-3.81,1.55-5.77.87.21,1.66.39,1.11.27C76.67,54.22,78,52.15,79.6,49.62ZM9.35,89.79C8.7,85.5,8.17,82.1,7.5,77.69l6.11,4.18a15.82,15.82,0,0,0-4.91-6.7c-.75-.57-3.67.14-4.07,1-1.24,2.64-2.89,5.92-2.26,8.42.81,3.16,3.53,6,5.79,8.58.69.81,2.6.87,3.89.73.47,0,1.15-1.71,1.06-2.57a27.19,27.19,0,0,0-1.4-4.89C10.88,87.62,10.43,88.27,9.35,89.79Zm97.12-27.46c-.21,2.72-.42,4.55-.49,6.38s0,3.9,0,5.85h-1.14l-2-3.06c-.3,2.86-.51,4.87-.74,7,4.24.85,6.09-1.24,6.64-4.25a34.14,34.14,0,0,0,.41-9.52c-.19-1.91-1.63-3.69-2.51-5.53l-5.22,3.37.52.78Z"/><path class="cls-1" d="M94.38,50a39.31,39.31,0,0,1,1.26-5.11C97.4,40.4,96.9,37,93.36,33c-6.1-6.81-5.44-17.89.38-25.23a21,21,0,0,1,24.63-6.15c8.74,3.62,13.64,12.48,12.24,22.12-1.3,8.91-8.9,16.58-17.76,17.54-3.61.39-7.88-1-10.8.5s-4.65,5.59-6.9,8.54Z"/><path class="cls-1" d="M6,35.3l3.72-7L20.22,41.43Z"/><path class="cls-1" d="M8.57,41.11l10.62,2.24C9.57,46.35,9.48,46.33,8.57,41.11Z"/><path class="cls-1" d="M33.07,77.82,30,81.42C47.91,84.53,64.62,83,81.42,75.21l-4.61-3.32c7.86.39,10.39,2.21,12.55,9.28L85.51,78c-.47.23-1.12.33-1.35.69-2.18,3.42-4.67,6.72-6.33,10.4s-2.5,7.81-3.7,11.74c-2.25,7.42-7,11.79-14.92,12.58-8.28.82-14.78-1.62-18.76-9.34-2.13-4.13-4.1-8.38-6.62-12.26C32.05,89,29.49,86.78,27,84c-1.61,1.9-2.72,3.19-3.92,4.59C22.75,82.33,25.11,79.63,33.07,77.82Zm35.25,26.31-5.85-4.41a21.49,21.49,0,0,1-1.36,2.68c-3-1-6.83,2.81-9.46-1.85-1.42,2.23-7.21,3-2.66,6.94C53.93,111.8,63.12,110.05,68.32,104.13ZM51.47,91.91c14.4,1,21.16-2.22,20.71-9.5l-20.71,4Zm-8.08,1.21,1.41-1.57c.13-4.87-1.9-7.07-8.5-5Z"/><path class="cls-1" d="M62,48.39C68,54.2,69,70.09,64,76.7,58,72.77,56.61,55.34,62,48.39Z"/><path class="cls-1" d="M45,51.3c6.32,5.92,8.16,21.49,3.57,28.34C42.28,75.69,39.92,58.51,45,51.3Z"/><path class="cls-1" d="M66.75,114.92c-4.68,6.08-8,6.72-12.84,2.21Z"/></g></g></svg>